<svg id="Capa_1" enable-background="new 0 0 512 512" height="512" viewBox="0 0 512 512" width="512" xmlns="http://www.w3.org/2000/svg"><g><path d="m401.206 110.793c-44.39-44.39-103.409-68.836-166.185-68.836s-121.795 24.446-166.185 68.836-68.836 103.41-68.836 166.186 24.446 121.795 68.836 166.185 103.409 68.836 166.185 68.836 121.795-24.446 166.185-68.836 68.836-103.409 68.836-166.185-24.446-121.796-68.836-166.186z" fill="#e62e6b"/><path d="m401.206 443.164c44.39-44.39 68.836-103.409 68.836-166.185s-24.446-121.796-68.836-166.186-103.409-68.835-166.185-68.835v470.042c62.776 0 121.795-24.446 166.185-68.836z" fill="#b32453"/><ellipse cx="235.021" cy="276.979" fill="#ffea80" rx="153.705" ry="153.705" transform="matrix(.707 -.707 .707 .707 -127.018 247.31)"/><path d="m388.727 276.979c0-84.753-68.952-153.706-153.706-153.706v307.411c84.753 0 153.706-68.952 153.706-153.705z" fill="#fc6"/><ellipse cx="235.021" cy="276.979" fill="#e62e6b" rx="76.772" ry="76.772" transform="matrix(.707 -.707 .707 .707 -127.018 247.31)"/><path d="m311.793 276.979c0-42.332-34.439-76.772-76.772-76.772v153.543c42.333 0 76.772-34.439 76.772-76.771z" fill="#b32453"/><path d="m497 62.919h-26.706l16.719-16.719c5.858-5.858 5.858-15.355 0-21.213-5.857-5.858-15.355-5.858-21.213 0l-16.719 16.719v-26.706c0-8.284-6.716-15-15-15s-15 6.716-15 15v56.706l-194.666 194.667c-5.858 5.858-5.858 15.355 0 21.213 2.929 2.929 6.768 4.394 10.606 4.394s7.678-1.464 10.606-4.394l194.667-194.667h56.706c8.284 0 15-6.716 15-15s-6.716-15-15-15z" fill="#43789c"/><path d="m497 62.919h-26.706l16.719-16.719c5.858-5.858 5.858-15.355 0-21.213-5.857-5.858-15.355-5.858-21.213 0l-16.719 16.719v-26.706c0-8.284-6.716-15-15-15s-15 6.716-15 15v56.706l-184.06 184.06v36.213c3.839 0 7.678-1.464 10.606-4.394l194.667-194.666h56.706c8.284 0 15-6.716 15-15s-6.716-15-15-15z" fill="#2a495e"/></g></svg>